<?xml version="1.0" encoding="utf-8"?>
<!-- Generator: Adobe Illustrator 19.0.0, SVG Export Plug-In . SVG Version: 6.00 Build 0)  -->
<svg version="1.1" id="Layer_1" xmlns="http://www.w3.org/2000/svg" xmlns:xlink="http://www.w3.org/1999/xlink" x="0px" y="0px"
	 viewBox="0 0 612 792" style="enable-background:new 0 0 612 792;" xml:space="preserve">
<style type="text/css">
	.st0{fill:#00AEEF;}
	.st1{fill:#FFFFFF;}
</style>
<path id="XMLID_28_" class="st0" d="M333.3,415.3c-2.7-4.9-6.6-11.2-7.3-17c-0.2-1.3-0.2-2.5,0-3.7c1.1-7.4,5.2-14,6.6-21.3
	c1.4-7.2-0.2-15-4.2-21.2h-3.2c-2,0-3.5-1.4-3.9-3.3c-2.6,0.2-5.5,1.2-7.6,1.8c-1.2,0.3-2.4,0.7-3.5,1.2c-1.4,0.7-2.6,1.8-3.6,2.9
	c-7.7,8.1-10.1,23.6-5.7,33.9c2,4.7,4,9.2,4.5,14.3c0.5,6.1-2.2,11.8-5.4,16.8c-3.4,5.4-5.8,11.2-9.2,16.6c-3.6,5.7-7.8,11-12,16.3
	c-1.2,1.5-2.4,3-4.2,3.6c-2.4,0.7-5.1-0.6-6.6-2.6c-1.5-2-2.2-4.5-2.9-6.9c-3.3-12.7-5.6-25.7-7.8-38.7c-1.7-9.8-1.7-24.6-12.1-29.8
	c-5.9-3-13.3-1.2-18.5,2.8s-8.6,9.9-11.4,15.9c-2.8,5.9-5.8,11.5-8.7,17.3c-2.8,5.5-3.8,11.7-7,17c-2,3.4-5.8,12.3-10.9,11.2
	c-3-0.7-1.5-5.8-1.2-8.7c0.6-7.6,1.9-15.1,3.4-22.5c2.5-11.9,5.4-23.7,8.3-35.4c1.2-4.9,3-10.3,4.6-15.8c2.3-13,3.1-26.1,5.2-39.1
	c2.3-14.7,2.3-30.2,2.1-45.1c-0.1-3.7-0.7-8.2-4.1-9.5c-3-1.2-6.4,1-7.8,4c-2.8,6.2-1.3,16.1-1.2,22.7c0.1,6.1,1.4,12.1,1.2,18
	c-0.2,7.6-1.4,15.4-2.6,22.9c-1.1,6.6-2.8,13.2-4.3,19.7c-4.8,20.1-11,40.2-16,59.9c-3.9,15.4-8.7,31.6-17,45.2
	c-5.5,9-9.7,18.7-15.9,27.3c-4.6,6.3-10.5,11.7-16,17.2c-1,1-2,1.9-2.9,2.9c-0.8,0.9-0.6,2.1-0.7,3.3c0,0.1,0,0.2,0,0.2
	c0,0.5,0,1-0.1,1.4c5.3-3.7,11.6-5.6,17.1-9c0.3-0.2,0.5-0.3,0.8-0.4c0.6-0.7,1.2-1.4,1.6-2c0.9-1.3,2.2-2,3.6-1.9
	c2-2.5,4.1-5.1,5.8-7.8c1.8-2.9,3.2-4.9,5.5-7.3c2.8-2.8,5-6.8,7.1-10.1c1-1.6,2.2-5.9,4.5-6.1c5.3-0.3,3.8,18.1,11.9,19.5
	c9,1.6,11.4-8.7,14.2-15.1c9.5-21.3,18.1-43,27-64.5c2.8-6.6,7-15.1,13.3-14.8c5.9,0.3,8.4,9.5,9.9,16.1c3.2,14.7,4.2,29.8,9.9,43.9
	c2.9,7.2,4.4,15.9,14.4,17c10.4,1.1,14.5-6.6,18.9-13.8c7.2-11.7,14-23.9,21.8-35.1c0.8-1.2,2.8-4.7,4.7-4.1
	c1.7,0.6,1.7,7.4,1.8,8.8c0.7,6.9,0.5,13.8,1.5,20.6c0.9,6.1,4.5,11.5,11.3,10.7c8.2-1,8.3-7.4,9.7-13.8
	C342,432.4,337.8,423.7,333.3,415.3z M330,443.3c-2.4,0.4-4.9-7-5.2-8.7c-1-5.1-0.1-10.5,0.7-15.6c0.1-0.4,0.1-0.7,0.3-1
	c0.5-0.7,1.8-0.6,2.4,0c0.6,0.6,0.9,1.6,1,2.5c0.4,2,2.1,10.8,2.2,16.8C331.7,440.6,331.3,443,330,443.3z"/>
<path id="XMLID_23_" class="st0" d="M329.7,406.8c3.7-13.3,15-56.3,36.1-49.7c7.4,2.3,9,9,10.6,15.7c3.2,13.5,4.4,27.4,4.5,41.3
	c0,7-0.2,14.1-0.6,21.1c-0.3,6.4-1.8,13,0.1,19.2c0.4,1.4,1,2.9,2.3,3.4c1.3,0.4,2.7-0.3,3.4-1.4c0.8-1.1,1-2.4,1.2-3.8
	c1.4-8.4,2.9-16.7,4.3-25.1c0.9-5,3.1-9.4,4.6-14.2c1.9-6,4-12,6.3-17.8c2.7-6.9,5.6-13.8,8.4-20.6c2.6-6.2,4.2-13.6,8.1-19
	c0.7-1,1.4-1.9,2.4-2.6c1-0.6,2.3-0.9,3.3-0.3c7,14.5,7.9,31.9,12.2,47.4c0.5,2,1.1,3.9,2,5.7c3.2,6,10.8,8.8,17.6,8.1
	c6.8-0.7,13-4.2,18.6-8.1c5.5-3.8,8.5-8.3,13.2-12.8c6-5.7,12.3-11.2,17.7-17.4c4.7-5.4,10.7-11.8,16.4-16.1
	c3.4-2.5,7.5-4.3,10.4-7.5c2-2.2,4.2-7.7-1.4-7.5c-0.3,0-0.7,0.1-1.1,0.3c-2.8,1.3-6.8,6.5-8.6,8.2c-10.8,10.1-21.6,20.8-31.2,32.1
	c-2.5,2.9-5.3,4.1-8.1,6.4c-2.1,1.7-3.5,4.3-5.5,6.1c-7.6,6.9-21.7,15.3-30.1,5.4c-7.9-9.3-6.8-22.4-9.9-33.6
	c-1.5-5.6-3.3-11.1-4.7-16.7c-0.7-2.8-1.5-5.7-3.1-8.2c-3.1-5-10-10.1-13.2-3c-4.6,10.3-9.7,20.1-13.7,30.7
	c-3.9,10.6-7.4,21.4-12.6,31.5c-3.1,6.1-4.6-5.7-4.7-7.7c-0.3-5.5,0-10.9-0.5-16.4c-1.1-11.3-4.4-25.7-16.6-29.7
	c-4.4-1.4-9.3-1.1-13.5,1c-2.7,1.4-5.1,3.4-7.3,5.6c-9.6,9.3-15.9,19.5-20.9,31.8c-2.6,6.4-1.7,14,3.3,18.8"/>
<path id="XMLID_33_" class="st0" d="M526.8,347.7c5.2-2.4,6.9-0.7,5.2,4.7c5.6-4.4,12.3-7.8,16.4-17.1
	C538.7,337.9,533.1,343.5,526.8,347.7z"/>
<path id="XMLID_1_" class="st1" d="M311.1,396.4c1,1.6,2.2,2.9,3.5,3.7c4.8-8.6,8.3-16.2,9.5-26.3c0.8-6.7,0.4-16.9-9-14.8
	c-3,0.6-5.5,2.9-6.5,5.8c-2.2,6.4-3.1,13-1.8,19.7C307.3,387.5,308.8,392.7,311.1,396.4z"/>
<path id="XMLID_2_" class="st0" d="M386.1,456.5c0,0,14.1-59.3,17-62.7s-10.6,15.9-12.1,19.6c-1.6,3.7-5.2,25.1-5.4,27.8
	S386.1,456.5,386.1,456.5z"/>
<path id="XMLID_5_" class="st0" d="M329.5,406.1l-0.2,3.2c0,0-1.3-2.3-1.3-3S329.5,406.1,329.5,406.1z"/>
<path id="XMLID_6_" class="st0" d="M430.5,348.3c0,0,13.4,55.3,18.6,57.6c0.6,0.3-4.4-1.4-6.3-7.1
	C440.8,392.3,430.5,348.3,430.5,348.3z"/>
<path id="XMLID_7_" class="st0" d="M409,378.2c0,0,9.5-22.1,12.6-24.4s4.7,2.3,4.7,2.3s-0.8-5.3-2.1-6s-8.8,1-9.8,5.1
	C413.2,359.4,409,378.2,409,378.2z"/>
<path id="XMLID_8_" class="st0" d="M381.5,365.5l6.3,38c0.5,1.6,3.3,2.5,3.3,2.5s-1.2,2.6-1.7,2.8c-0.5,0.2-4.3-2.5-4.7-4.8
	c-0.4-2.3-3.2-29.2-3.3-31.5c-0.1-2.3,0-6.3,0-6.3L381.5,365.5z"/>
<path id="XMLID_9_" class="st0" d="M97,493.9c0,0-13.2-32.3,5-61.8c18.2-29.5,22.4-29.5,22.4-32s-3.3-4.9-18.1,8.8
	c-14.8,13.8-33.7,52.3-18.6,85.8c3.5,7.8,8.5,16.2,16.6,20c5.9,2.8,12.5,2.2,18.5,0c3.3-1.2,6.4-2.8,9.3-4.5
	c1.6-0.9,3.1-1.9,4.6-2.8c1.5-1,3.2-1.9,4.5-3c1.1-1,2.2-2.1,3.3-3.2c0.4-0.4,3-2.5,2.8-3.1c-0.2-0.9-3.8-0.5-4.5-0.5
	c-3.6,0.4-7.2,1.2-10.7,2.2c-0.6,0.2-1.7,0.3-2.3,0.6C129.9,500.4,107.3,515.2,97,493.9z"/>
<path id="XMLID_3_" class="st0" d="M176,416.1c0,0,23-85,23.3-113.5s5.2,16.1,2.7,29.5s-2.5,13.4-2.5,13.4l-18.9,69.1
	c0,0,0,0-0.6,1.7C179.4,418,176,416.1,176,416.1z"/>
<path id="XMLID_10_" class="st0" d="M200.9,368.2c0,0,13.8-79,11.5-91.7c-2.3-12.8-7.8-10.5-9.2-9.6s-1.5,0.8-1.5,0.8
	s-4,13.2-4,15.9s0.4,35.2-1,45.5s-4.6,44-5.2,48.2s-1,6.9-1,6.9L200.9,368.2z"/>
<path id="XMLID_12_" class="st0" d="M299.2,375.9c0,0-1.5-15.1,8.8-23s19.6-1.8,19.6-1.8s6.3,9.7,5.1,14.5s-1.3,4.8-1.3,4.8l0,0
	l-6.1,1.7c0,0-0.4-10.3-3.4-12.8s-2.1-2.3-2.9-2.5s-13.6,5.2-13.6,10.9s-0.8,9-2.1,10.1S299.2,375.9,299.2,375.9z"/>
<path id="XMLID_11_" class="st0" d="M474.3,399.8l53.2-52.2c0,0,6.1,2.3,3.1,5s-54,52.6-54,52.6L474.3,399.8z"/>
<path id="XMLID_13_" class="st0" d="M445.8,400.5c0,0,5.7,16.1,28.5-0.7c22.8-16.8,2.3,5.4,2.3,5.4s-20.9,19.4-36.7,2.1
	c0,0,1.6-6,1.6-6.8S445.8,400.5,445.8,400.5z"/>
<path id="XMLID_14_" class="st0" d="M431,348.9l14.8,51.6c0,0-1.5,1-2.2-0.4s-9.4-29.8-9.7-33.1S431,348.9,431,348.9z"/>
<path id="XMLID_16_" class="st0" d="M146.3,499.7c0,0,22-29.5,22.6-30s1.5-1,1.5-1s2.1-2.9,3.8,3.1s1.7,6.1,1.7,6.1
	s1.9-19.9-1.3-20.9s-15.5,18.2-19.1,23.5s-12.4,17.6-12.4,17.6C143.1,499.3,146.3,499.7,146.3,499.7z"/>
</svg>
